<?xml version="1.0" standalone="no"?>
<!DOCTYPE svg PUBLIC "-//W3C//DTD SVG 20010904//EN"
 "http://www.w3.org/TR/2001/REC-SVG-20010904/DTD/svg10.dtd">
<svg version="1.0" xmlns="http://www.w3.org/2000/svg"
 width="700.000000pt" height="700.000000pt" viewBox="0 0 700.000000 700.000000"
 preserveAspectRatio="xMidYMid meet">
<metadata>
Created by potrace 1.14, written by Peter Selinger 2001-2017
</metadata>
<g transform="translate(0.000000,700.000000) scale(0.100000,-0.100000)"
fill="#000000" stroke="none">
<path d="M1075 6412 c-72 -8 -202 -45 -271 -77 -240 -110 -413 -317 -486 -580
-22 -78 -23 -92 -23 -620 0 -533 0 -541 22 -587 29 -64 100 -129 165 -153 49
-18 85 -19 513 -20 l460 0 2 -1400 c2 -1732 0 -1609 29 -1725 74 -296 297
-536 579 -623 140 -43 72 -42 2000 -42 1012 0 1861 3 1886 7 339 49 618 287
718 612 33 108 36 148 36 541 0 365 0 371 -23 416 -31 64 -86 117 -151 147
-55 25 -55 25 -375 26 l-321 1 -1 1640 c0 1701 -1 1701 -41 1825 -98 304 -334
520 -648 597 -65 16 -221 17 -2055 18 -1092 0 -1998 -1 -2015 -3z m4010 -611
c45 -23 76 -46 100 -78 69 -91 65 26 65 -1768 l0 -1621 -1157 0 c-637 1 -1185
-2 -1217 -7 -100 -12 -185 -78 -229 -176 -19 -43 -21 -67 -22 -391 -2 -373 -5
-399 -55 -468 -132 -183 -396 -160 -500 44 l-25 49 -2 2080 c0 1144 -4 2114
-7 2155 -3 41 -14 105 -24 142 -17 59 -17 67 -4 70 9 2 690 3 1513 2 l1498 -1
66 -32z m-3790 1 c58 -30 102 -74 133 -134 l27 -53 2 -327 c2 -257 0 -328 -10
-329 -6 0 -138 0 -292 0 l-280 0 1 323 0 323 28 57 c31 66 98 130 159 152 59
22 179 16 232 -12z m4830 -4207 c1 -218 -18 -284 -107 -359 -86 -74 13 -69
-1495 -70 -744 0 -1355 2 -1357 5 -3 3 1 27 9 53 27 88 33 160 34 369 l1 157
1457 -2 1458 -3 0 -150z"/>
<path d="M2855 4953 c-67 -16 -142 -67 -179 -123 -56 -85 -64 -194 -22 -284
31 -66 78 -113 146 -145 l55 -25 785 0 c747 0 788 0 837 19 65 23 124 78 159
147 36 70 38 169 6 242 -29 64 -99 130 -164 154 -51 19 -82 20 -828 19 -426 0
-784 -2 -795 -4z"/>
<path d="M3025 3790 c-206 -6 -218 -9 -292 -68 -178 -140 -123 -425 96 -500
24 -9 247 -12 805 -12 424 0 787 3 806 6 19 3 53 16 75 29 172 100 201 334 58
466 -85 78 -45 73 -738 79 -341 3 -705 3 -810 0z"/>
</g>
</svg>
